<?xml version="1.0" encoding="UTF-8" standalone="no"?>
<!-- Created with Inkscape (http://www.inkscape.org/) -->

<svg
   xmlnsDc="http://purl.org/dc/elements/1.1/"
   xmlnsCc="http://creativecommons.org/ns#"
   xmlnsRdf="http://www.w3.org/1999/02/22-rdf-syntax-ns#"
   xmlnsSvg="http://www.w3.org/2000/svg"
   xmlns="http://www.w3.org/2000/svg"
   xmlnsXlink="http://www.w3.org/1999/xlink"
   xmlnsSodipodi="http://sodipodi.sourceforge.net/DTD/sodipodi-0.dtd"
   xmlnsInkscape="http://www.inkscape.org/namespaces/inkscape"
   width="458mm"
   height="65mm"
   viewBox="0 0 458 65"
   version="1.1"
   id="svg8"
   inkscapeVersion="0.92.2 (5c3e80d, 2017-08-06)"
   sodipodiDocname="staff.svg">
  <defs
     id="defs2">
    <linearGradient
       x1="382.34"
       y1="489.14001"
       gradientTransform="matrix(2.0779,0,0,2.0779,-518.08,-281.8)"
       x2="490.53"
       gradientUnits="userSpaceOnUse"
       y2="333.89001"
       id="linearGradient3019">
      <stop
         offset="0"
         style="stop-color:#000000;stop-opacity:.82639"
         id="stop3015" />
      <stop
         offset="1"
         style="stop-color:#000000"
         id="stop3017" />
    </linearGradient>
    <linearGradient
       inkscapeCollect="always"
       xlinkHref="#linearGradient3019"
       id="linearGradient4552"
       gradientUnits="userSpaceOnUse"
       gradientTransform="matrix(2.0779,0,0,2.0779,-518.08,-281.8)"
       x1="382.34"
       y1="489.14001"
       x2="490.53"
       y2="333.89001" />
    <linearGradient
       inkscapeCollect="always"
       xlinkHref="#linearGradient3019"
       id="linearGradient4554"
       gradientUnits="userSpaceOnUse"
       gradientTransform="matrix(2.0779,0,0,2.0779,-518.08,-281.8)"
       x1="382.34"
       y1="489.14001"
       x2="490.53"
       y2="333.89001" />
    <linearGradient
       inkscapeCollect="always"
       xlinkHref="#linearGradient3019"
       id="linearGradient4560"
       gradientUnits="userSpaceOnUse"
       gradientTransform="matrix(2.0779,0,0,2.0779,-518.08,-281.8)"
       x1="382.34"
       y1="489.14001"
       x2="490.53"
       y2="333.89001" />
    <linearGradient
       inkscapeCollect="always"
       xlinkHref="#linearGradient3019"
       id="linearGradient4566"
       gradientUnits="userSpaceOnUse"
       gradientTransform="matrix(2.0779,0,0,2.0779,-518.08,-281.8)"
       x1="382.34"
       y1="489.14001"
       x2="490.53"
       y2="333.89001" />
    <linearGradient
       inkscapeCollect="always"
       xlinkHref="#linearGradient3019"
       id="linearGradient4572"
       gradientUnits="userSpaceOnUse"
       gradientTransform="matrix(2.0779,0,0,2.0779,-518.08,-281.8)"
       x1="382.34"
       y1="489.14001"
       x2="490.53"
       y2="333.89001" />
    <linearGradient
       inkscapeCollect="always"
       xlinkHref="#linearGradient3019"
       id="linearGradient4578"
       gradientUnits="userSpaceOnUse"
       gradientTransform="matrix(2.0779,0,0,2.0779,-518.08,-281.8)"
       x1="382.34"
       y1="489.14001"
       x2="490.53"
       y2="333.89001" />
    <linearGradient
       inkscapeCollect="always"
       xlinkHref="#linearGradient3019"
       id="linearGradient4584"
       gradientUnits="userSpaceOnUse"
       gradientTransform="matrix(2.0779,0,0,2.0779,-518.08,-281.8)"
       x1="382.34"
       y1="489.14001"
       x2="490.53"
       y2="333.89001" />
    <linearGradient
       inkscapeCollect="always"
       xlinkHref="#linearGradient3019"
       id="linearGradient4590"
       gradientUnits="userSpaceOnUse"
       gradientTransform="matrix(2.0779,0,0,2.0779,-518.08,-281.8)"
       x1="382.34"
       y1="489.14001"
       x2="490.53"
       y2="333.89001" />
  </defs>
  <sodipodi:namedview
     id="base"
     pagecolor="#ffffff"
     bordercolor="#666666"
     borderopacity="1.0"
     inkscapePageopacity="0.0"
     inkscapePageshadow="2"
     inkscapeZoom="0.98994949"
     inkscapeCx="1014.6874"
     inkscapeCy="112.66131"
     inkscapeDocument-units="mm"
     inkscapeCurrent-layer="layer2"
     showgrid="false"
     objecttolerance="1"
     guidetolerance="9"
     inkscapeWindow-width="1440"
     inkscapeWindow-height="830"
     inkscapeWindow-x="-8"
     inkscapeWindow-y="-1"
     inkscapeWindow-maximized="1" />
  <metadata
     id="metadata5">
    <rdf:RDF>
      <cc:Work
         rdf:about="">
        <dc:format>image/svg+xml</dc:format>
        <dc:type
           rdfResource="http://purl.org/dc/dcmitype/StillImage" />
        <dc:title></dc:title>
      </cc:Work>
    </rdf:RDF>
  </metadata>
  <g
     inkscapeLabel="Layer 1"
     inkscapeGroupmode="layer"
     id="layer1"
     transform="translate(0,-232)">
    <rect
       style={{fill:"#e6e6e6,"fill-rule:"evenodd",stroke-width:"0.26458332"
       id="rect4504"
       width="417.28571"
       height="1.5119048"
       x="21.388083"
       y="263.01224" />
    <rect
       y="279.64322"
       x="21.388075"
       height="1.5119048"
       width="417.28571"
       id="rect4506"
       style={{fill:"#e6e6e6,"fill-rule:"evenodd",stroke-width:"0.26458332" />
    <rect
       style={{fill:"#e6e6e6,"fill-rule:"evenodd",stroke-width:"0.26458332"
       id="rect4508"
       width="417.28571"
       height="1.5119048"
       x="21.388081"
       y="271.32773" />
    <rect
       y="254.69676"
       x="21.388083"
       height="1.5119048"
       width="417.28571"
       id="rect4510"
       style={{fill:"#e6e6e6,"fill-rule:"evenodd",stroke-width:"0.26458332" />
    <rect
       style={{fill:"#e6e6e6,"fill-rule:"evenodd",stroke-width:"0.26458332"
       id="rect4512"
       width="417.28571"
       height="1.5119048"
       x="21.388083"
       y="247.13724" />
    <rect
       style={{fill:"#e6e6e6,"fill-rule:"evenodd",stroke-width:"0.04604824"
       id="rect4546"
       width="12.639641"
       height="1.5119048"
       x="21.388075"
       y="288.19583" />
  </g>
  <g
     inkscapeGroupmode="layer"
     id="layer2"
     inkscapeLabel="notes"
     transform="translate(0,11)">
    <g
       id="layer1-9"
       transform="matrix(0.03210066,0,0,0.03416264,18.238116,20.582716)">
      <path
         d="m 418.39,231.34 c 5.3071,163.8 3.0093,316.18 0.55337,483.27 -1.2461,42.809 -38.247,71.529 -72.88,89.908 -30.854,18.567 -67.795,28.966 -103.61,20.691 -33.304,-3.4173 -67.756,-27.73 -68.454,-63.704 -2.2204,-41.711 27.904,-80.552 64.988,-97.024 36.404,-20.749 82.429,-25.246 121.63,-10.331 19.156,6.0549 24.483,-11.721 26.874,-28.819 2.2123,-129.77 3.9829,-259.54 4.4354,-389.33 0.36593,-12.973 26.294,-17.166 26.461,-4.6603 z"
         style={{fill:"url(#linearGradient4554)",fill-rule:"evenodd",stroke:"#000000",stroke-width:"5.92409992",stroke-linecap:"round",stroke-linejoin:"round"}}
         id="path3"
         inkscapeConnector-curvature="0" />
    </g>
    <g
       transform="matrix(0.03210066,0,0,0.03416264,54.586772,16.840943)"
       id="g4550">
      <path
         inkscape:connector-curvature="0"
         id="path4548"
         style={{fill:"url(#linearGradient4552)",fill-rule:"evenodd",stroke:"#000000",stroke-width:"5.92409992",stroke-linecap:"round",stroke-linejoin:"round"}}
         d="m 418.39,231.34 c 5.3071,163.8 3.0093,316.18 0.55337,483.27 -1.2461,42.809 -38.247,71.529 -72.88,89.908 -30.854,18.567 -67.795,28.966 -103.61,20.691 -33.304,-3.4173 -67.756,-27.73 -68.454,-63.704 -2.2204,-41.711 27.904,-80.552 64.988,-97.024 36.404,-20.749 82.429,-25.246 121.63,-10.331 19.156,6.0549 24.483,-11.721 26.874,-28.819 2.2123,-129.77 3.9829,-259.54 4.4354,-389.33 0.36593,-12.973 26.294,-17.166 26.461,-4.6603 z" />
    </g>
    <g
       id="g4558"
       transform="matrix(0.03210066,0,0,0.03416264,94.677201,12.564631)">
      <path
         d="m 418.39,231.34 c 5.3071,163.8 3.0093,316.18 0.55337,483.27 -1.2461,42.809 -38.247,71.529 -72.88,89.908 -30.854,18.567 -67.795,28.966 -103.61,20.691 -33.304,-3.4173 -67.756,-27.73 -68.454,-63.704 -2.2204,-41.711 27.904,-80.552 64.988,-97.024 36.404,-20.749 82.429,-25.246 121.63,-10.331 19.156,6.0549 24.483,-11.721 26.874,-28.819 2.2123,-129.77 3.9829,-259.54 4.4354,-389.33 0.36593,-12.973 26.294,-17.166 26.461,-4.6603 z"
         style={{fill:"url(#linearGradient4560)",fill-rule:"evenodd",stroke:"#000000",stroke-width:"5.92409992",stroke-linecap:"round",stroke-linejoin:"round"}}
         id="path4556"
         inkscape:connector-curvature="0" />
    </g>
    <g
       transform="matrix(0.03210066,0,0,0.03416264,133.69855,8.021049)"
       id="g4564">
      <path
         inkscape:connector-curvature="0"
         id="path4562"
         style={{fill:"url(#linearGradient4566)",fill-rule:"evenodd",stroke:"#000000",stroke-width:"5.92409992",stroke-linecap:"round",stroke-linejoin:"round"}}
         d="m 418.39,231.34 c 5.3071,163.8 3.0093,316.18 0.55337,483.27 -1.2461,42.809 -38.247,71.529 -72.88,89.908 -30.854,18.567 -67.795,28.966 -103.61,20.691 -33.304,-3.4173 -67.756,-27.73 -68.454,-63.704 -2.2204,-41.711 27.904,-80.552 64.988,-97.024 36.404,-20.749 82.429,-25.246 121.63,-10.331 19.156,6.0549 24.483,-11.721 26.874,-28.819 2.2123,-129.77 3.9829,-259.54 4.4354,-389.33 0.36593,-12.973 26.294,-17.166 26.461,-4.6603 z" />
    </g>
    <g
       id="g4570"
       transform="matrix(0.03210066,0,0,0.03416264,175.3926,3.7447366)">
      <path
         d="m 418.39,231.34 c 5.3071,163.8 3.0093,316.18 0.55337,483.27 -1.2461,42.809 -38.247,71.529 -72.88,89.908 -30.854,18.567 -67.795,28.966 -103.61,20.691 -33.304,-3.4173 -67.756,-27.73 -68.454,-63.704 -2.2204,-41.711 27.904,-80.552 64.988,-97.024 36.404,-20.749 82.429,-25.246 121.63,-10.331 19.156,6.0549 24.483,-11.721 26.874,-28.819 2.2123,-129.77 3.9829,-259.54 4.4354,-389.33 0.36593,-12.973 26.294,-17.166 26.461,-4.6603 z"
         style={{fill:"url(#linearGradient4572)",fill-rule:"evenodd",stroke:"#000000",stroke-width:"5.92409992",stroke-linecap:"round",stroke-linejoin:"round"}}
         id="path4568"
         inkscape:connector-curvature="0" />
    </g>
    <g
       transform="matrix(0.03210066,0,0,0.03416264,213.0776,-0.53157584)"
       id="g4576">
      <path
         inkscape:connector-curvature="0"
         id="path4574"
         style={{fill:"url(#linearGradient4578)",fill-rule:"evenodd",stroke:"#000000",stroke-width:"5.92409992",stroke-linecap:"round",stroke-linejoin:"round"}}
         d="m 418.39,231.34 c 5.3071,163.8 3.0093,316.18 0.55337,483.27 -1.2461,42.809 -38.247,71.529 -72.88,89.908 -30.854,18.567 -67.795,28.966 -103.61,20.691 -33.304,-3.4173 -67.756,-27.73 -68.454,-63.704 -2.2204,-41.711 27.904,-80.552 64.988,-97.024 36.404,-20.749 82.429,-25.246 121.63,-10.331 19.156,6.0549 24.483,-11.721 26.874,-28.819 2.2123,-129.77 3.9829,-259.54 4.4354,-389.33 0.36593,-12.973 26.294,-17.166 26.461,-4.6603 z" />
    </g>
    <g
       id="g4582"
       transform="matrix(0.03210066,0,0,0.03416264,255.30619,-4.2733492)">
      <path
         d="m 418.39,231.34 c 5.3071,163.8 3.0093,316.18 0.55337,483.27 -1.2461,42.809 -38.247,71.529 -72.88,89.908 -30.854,18.567 -67.795,28.966 -103.61,20.691 -33.304,-3.4173 -67.756,-27.73 -68.454,-63.704 -2.2204,-41.711 27.904,-80.552 64.988,-97.024 36.404,-20.749 82.429,-25.246 121.63,-10.331 19.156,6.0549 24.483,-11.721 26.874,-28.819 2.2123,-129.77 3.9829,-259.54 4.4354,-389.33 0.36593,-12.973 26.294,-17.166 26.461,-4.6603 z"
         style={{fill:"url(#linearGradient4584)",fill-rule:"evenodd",stroke:"#000000",stroke-width:"5.92409992",stroke-linecap:"round",stroke-linejoin:"round"}}
         id="path4580"
         inkscape:connector-curvature="0" />
    </g>
    <g
       transform="matrix(0.03210066,0,0,0.03416264,293.52573,-8.8169312)"
       id="g4588">
      <path
         inkscape:connector-curvature="0"
         id="path4586"
         style={{fill:"url(#linearGradient4590)",fill-rule:"evenodd",stroke:"#000000",stroke-width:"5.92409992",stroke-linecap:"round",stroke-linejoin:"round"}}
         d="m 418.39,231.34 c 5.3071,163.8 3.0093,316.18 0.55337,483.27 -1.2461,42.809 -38.247,71.529 -72.88,89.908 -30.854,18.567 -67.795,28.966 -103.61,20.691 -33.304,-3.4173 -67.756,-27.73 -68.454,-63.704 -2.2204,-41.711 27.904,-80.552 64.988,-97.024 36.404,-20.749 82.429,-25.246 121.63,-10.331 19.156,6.0549 24.483,-11.721 26.874,-28.819 2.2123,-129.77 3.9829,-259.54 4.4354,-389.33 0.36593,-12.973 26.294,-17.166 26.461,-4.6603 z" />
    </g>
  </g>
</svg>
